<svg width="986" height="714" viewBox="0 0 986 714" fill="none" xmlns="http://www.w3.org/2000/svg">
    <g clip-path="url(#clip0_2028_2)">
        <path fill-rule="evenodd" clip-rule="evenodd"
              d="M783.767 283.267C783.767 268.333 783.5 265.8 781.367 263.933C779.1 261.8 757.767 261.667 502.033 261.667H225.1L222.967 265C221.233 267.533 220.967 271.267 221.367 284.333C221.767 299.533 222.033 300.733 224.967 303.133C228.033 305.667 234.433 305.667 503.233 305.667C776.7 305.667 778.433 305.667 781.1 303C783.5 300.6 783.767 298.6 783.767 283.267Z"
              fill="#41C4FF"/>
        <path fill-rule="evenodd" clip-rule="evenodd"
              d="M752.433 379L752.167 346.733L751.767 314.333L501.767 313.933L251.767 313.667V346.333V379H285.767H319.633L322.167 373.267C330.3 355 357.233 355.933 364.033 374.6L365.633 379H422.567H479.633L480.433 375.933C481.9 371.267 487.5 364.467 491.9 362.2C497.233 359.533 507.5 359.4 512.7 362.067C517.9 364.733 522.433 370.333 523.367 375.267L524.167 379L582.3 378.733L640.433 378.333L640.833 375.267C641.5 370.333 650.433 362.2 656.833 360.467C667.5 357.533 680.433 364.333 683.767 374.333L685.367 379H718.833H752.433Z"
              fill="#41C4FF"/>
        <path fill-rule="evenodd" clip-rule="evenodd"
              d="M334.033 403.8C328.833 401.667 321.1 393.267 321.1 389.667C321.1 387.133 320.033 387 286.433 387H251.767V419.933V453L502.033 452.6L752.433 452.333L752.167 419.933L751.9 387.667L718.433 387.267L684.967 387L683.1 391.4C680.567 397.4 672.967 403.933 667.1 405.133C656.433 407.133 646.3 402.2 642.3 393L639.633 387H581.9H524.033L523.233 390.467C518.433 409.533 490.167 410.867 481.767 392.467L479.367 387H422.433H365.367L362.3 393.267C356.967 403.933 344.967 408.467 334.033 403.8Z"
              fill="#41C4FF"/>
        <path fill-rule="evenodd" clip-rule="evenodd"
              d="M781.367 482.067C781.5 470.333 781.1 465.4 779.9 463.8C778.3 461.8 752.7 461.667 501.767 461.667C247.233 461.667 225.233 461.8 223.633 463.8C222.3 465.533 221.9 470.067 222.167 482.2C222.433 496.6 222.833 498.6 225.233 500.6C227.9 502.867 243.1 503 501.767 503C760.433 503 775.633 502.867 778.3 500.6C780.7 498.6 781.1 496.733 781.367 482.067Z"
              fill="#41C4FF"/>
        <path fill-rule="evenodd" clip-rule="evenodd"
              d="M417.233 108.2C413.1 101.533 404.033 95.1333 393.767 91.6667C384.7 88.4667 359.367 87.8 347.767 90.3333C325.767 95.2666 304.3 107.133 281.1 127.133C274.3 133 271.9 135.933 270.567 140.467C267.9 149.267 262.567 157.533 258.033 159.933C255.233 161.267 249.9 162.067 241.367 162.2C229.9 162.333 228.7 162.6 226.3 165.533C224.167 168.2 223.767 169.933 224.567 174.2C227.233 191.133 242.033 208.6 259.367 215.4L264.967 217.667L271.367 211.8C275.767 207.667 278.7 203.4 281.1 197.533C285.1 187.267 290.567 183 299.233 183C310.967 183 320.3 189.533 340.033 211.8C346.414 219.206 353.281 226.904 356.475 230.484C357.019 231.094 357.456 231.584 357.767 231.933L361.767 236.467L373.1 228.867C382.967 222.333 405.367 204.467 407.1 201.667C407.367 201.267 402.3 195.133 395.633 188.2C372.7 164.067 363.1 147.533 363.1 131.667C363.1 124.067 363.633 121.533 366.167 118.067C374.433 106.467 394.3 104.867 416.167 114.2C418.833 115.4 421.1 115.933 421.1 115.267C421.1 114.733 419.367 111.533 417.233 108.2Z"
              fill="white"/>
        <path fill-rule="evenodd" clip-rule="evenodd"
              d="M440.833 234.333C441.233 233.933 435.633 227.533 428.433 220.333C421.1 213 414.567 207 413.767 207C413.1 207.133 408.833 210.467 404.433 214.467C400.033 218.467 392.7 224.6 388.033 228.067L379.5 234.333L409.9 234.733C426.567 234.867 440.433 234.733 440.833 234.333Z"
              fill="white"/>
        <path fill-rule="evenodd" clip-rule="evenodd"
              d="M516.967 9.93332L512.833 9.1333C505.1 7.5333 489.767 8.46664 483.1 10.7333C467.633 16.0666 455.233 26.8666 448.167 41.4C445.233 47.2666 444.3 51.4 443.9 59.5333C443.1 78.9999 450.033 95.1333 465.5 109.267L473.1 116.2V175.533V235H479.1H485.1V185.267C485.1 138.467 485.233 135.4 487.767 131.4C494.967 119.533 512.3 120.733 518.7 133.667C520.833 137.8 521.1 143.267 521.1 186.6V235H526.433H531.9L531.633 176.467L531.233 117.933L540.7 108.733C553.767 96.2 559.9 83 561.5 63.9333L562.3 56.3333L549.367 69.2666C535.1 83.7999 527.233 88.4666 516.3 89.4C507.367 90.2 501.233 88.0666 495.367 82.0666C480.567 67.4 484.567 46.1999 506.567 21.5333L516.967 9.93332Z"
              fill="white"/>
        <path fill-rule="evenodd" clip-rule="evenodd"
              d="M639.767 177.667C619.633 170.2 602.567 163.533 601.9 162.867C601.1 162.2 600.3 161.667 599.9 161.667C599.367 161.667 596.567 166.6 593.5 172.733C585.367 188.6 575.367 205.8 565.633 220.733C560.967 227.933 557.1 234.067 557.1 234.333C557.1 234.733 579.5 235 606.967 235H656.967L657.367 231.933L657.767 229L660.433 231.933C662.433 234.333 664.433 235 669.5 235C674.833 235 675.9 234.6 675.233 233C673.699 229.165 673.004 227.624 673.349 227.337C673.604 227.125 674.427 227.597 675.9 228.333C677.633 229.267 680.033 230.867 681.367 231.933C683.233 233.667 684.033 233.533 687.633 231.667C689.9 230.6 691.767 229.267 691.767 228.733C691.767 228.333 690.3 225.933 688.3 223.4C684.433 218.333 684.567 218.2 691.767 221.133L697.233 223.4L701.767 219L706.3 214.6L703.367 212.2C701.767 210.867 701.1 209.8 702.033 209.667C702.833 209.667 704.033 210.2 704.433 211C705.767 213.133 709.1 212.6 712.7 209.8L715.9 207.133L711.9 205C707.897 202.998 703.776 201.466 650.861 181.792C647.379 180.497 643.685 179.124 639.767 177.667Z"
              fill="white"/>
        <path fill-rule="evenodd" clip-rule="evenodd"
              d="M316.433 215C321.692 215 325.194 215 327.433 214.898C331.835 214.697 331.358 214.101 329.767 212.333C327.5 209.933 325.767 209.667 307.233 209.8L287.1 209.933L276.433 218.6C248.033 241.533 232.967 253.933 233.367 254.2C233.633 254.2 354.567 254.067 502.033 253.667L770.433 253L759.367 243.533C728.433 216.733 723.233 212.333 722.433 212.333C722.033 212.333 719.633 214.333 717.233 216.867L712.967 221.267L722.033 229.4C725.897 232.846 730.414 236.782 733.216 239.224C733.993 239.9 734.637 240.462 735.1 240.867L739.1 244.2L503.767 244.333C309.633 244.333 268.833 244.067 270.433 242.6C271.5 241.667 278.833 235 286.567 227.933L300.7 215H316.433Z"
              fill="#41C4FF"/>
        <path fill-rule="evenodd" clip-rule="evenodd"
              d="M513.1 187.533C513.1 139.133 512.833 136.467 507.9 132.733C504.567 130.067 499.9 130.733 496.433 134.333L493.1 137.533V186.333V235H503.1H513.1V187.533Z"
              fill="white"/>
        <path fill-rule="evenodd" clip-rule="evenodd"
              d="M438.7 83.9333C435.9 76.0667 435.367 71.9333 435.367 61.2666L435.5 48.3333H368.567C310.167 48.3333 301.367 48.6 298.7 50.4666C295.9 52.4666 295.767 53.1333 295.767 79V105.533L306.967 98.4666C314.3 93.9333 323.5 89.6666 333.367 86.3333C346.567 81.9333 350.433 81.2666 364.433 80.7333C382.433 79.9333 393.767 81.9333 405.233 87.8C413.633 91.9333 422.967 100.467 427.233 107.667C428.967 110.733 434.033 116.733 438.433 121C443.9 126.2 446.167 129.133 445.233 130.067C443.9 131.4 424.567 126.067 408.033 119.533C397.5 115.4 383.767 115.133 377.633 118.867C369.1 124.067 368.567 134.733 375.9 149.133C381.633 160.333 388.967 169.533 405.633 186.6L420.167 201.667L442.267 201.667L465.1 201.667V160.467V119.267L459.767 115C452.033 108.867 442.7 95 438.7 83.9333Z"
              fill="#41C4FF"/>
        <path fill-rule="evenodd" clip-rule="evenodd"
              d="M628.167 81.2666C643.367 63.9333 655.767 49.4 655.767 49C655.767 48.3333 570.433 47.9333 570.433 48.6C569.1 74.5999 567.367 83.9333 561.767 95C557.5 103.4 548.7 114.333 543.767 117.133L539.767 119.533V160.6V201.667H554.167H568.567L577.5 185.267C582.3 176.333 587.9 165.8 589.767 161.8L593.233 154.6L590.3 141.533L587.367 128.467L593.9 120.6C597.5 116.333 612.833 98.5999 628.167 81.2666Z"
              fill="#41C4FF"/>
        <path fill-rule="evenodd" clip-rule="evenodd"
              d="M524.833 78.7333C530.567 76.0666 557.1 51.9333 557.1 49.4C557.1 48.7333 544.033 48.3333 527.9 48.3333C505.867 48.3333 498.626 48.2187 496.252 51.561C495.005 53.3157 495.1 56.0231 495.1 60.2C495.1 77.5333 508.833 86.2 524.833 78.7333Z"
              fill="#41C4FF"/>
        <path fill-rule="evenodd" clip-rule="evenodd"
              d="M708.833 80.6C708.433 54.2 708.3 51.9333 705.9 50.2C704.433 49.1333 700.567 48.3333 697.367 48.3333H691.5L694.967 52.4666C698.833 57.1333 699.233 60.7333 696.567 70.6C694.433 78.7333 695.633 85.8 701.5 97C704.757 103.345 706.642 107.018 707.704 106.794C709.162 106.486 709.065 98.8145 708.833 80.6Z"
              fill="#41C4FF"/>
        <path fill-rule="evenodd" clip-rule="evenodd"
              d="M481.633 2.73331C465.767 7.53329 450.967 19.2666 442.967 33.2666L439.1 40.3333H369.1C301.233 40.3333 298.967 40.4666 294.7 43C287.233 47.5333 286.433 51.5333 286.433 83.4V111.8L275.9 121C266.833 128.867 264.833 131.267 262.433 138.067C260.833 142.333 257.9 147.8 255.767 150.067C252.033 154.2 251.633 154.333 242.433 153.933C226.833 153.267 218.033 157.667 216.3 166.6C215.233 172.467 218.7 185.8 223.767 194.467C228.967 203.533 240.967 215.133 249.9 219.667L257.5 223.533L253.633 226.467C234.167 241.533 217.367 256.467 215.5 260.333C212.3 266.6 212.033 298.467 215.1 304.333C218.7 311.4 223.1 313.667 233.233 313.667H242.433V382.867V451.933L233.1 452.6C215.9 453.933 212.7 459 213.367 483.667C213.767 501.4 215.233 505.533 222.567 509.267C225.1 510.6 285.5 511 502.3 511C777.633 511 778.833 511 783.1 508.333C789.233 504.6 790.433 499.8 790.433 481C790.433 466.2 790.167 464.333 787.367 460.2C783.767 454.867 777.9 452.467 768.167 452.467L761.1 452.333V383.133V313.933L772.433 313.533C782.7 313 784.033 312.6 787.367 309.267C791.091 305.675 791.1 305.269 791.497 286.865L791.5 286.733C791.767 276.333 791.633 265.933 791.1 263.533C790.433 259.8 785.633 255.133 761.1 234.2C744.967 220.333 731.767 208.733 731.767 208.333C731.767 207.933 733.633 206.467 736.033 205.133C738.3 203.667 750.3 195.4 762.7 186.6C786.433 169.8 789.233 166.733 786.433 160.467C784.033 155.133 770.567 140.733 766.7 139.267C764.7 138.467 759.767 137.133 755.767 136.333C745.5 134.067 728.033 125.4 722.167 119.667L717.1 114.733V84.0666C717.1 58.2 716.7 52.7333 714.833 48.7333C711.9 42.3333 706.433 40.3333 692.7 40.3333C685.5 40.3333 679.633 39.5333 676.433 38.2C671.767 36.3333 670.833 36.3333 665.9 38.2C661.1 40.0666 650.033 40.3333 581.367 40.3333C537.767 40.3333 502.433 39.8 502.433 39.1333C502.433 38.6 508.833 31.4 516.567 23.2666C524.3 15 530.3 7.79996 529.9 7.1333C526.433 1.53329 495.233 -1.26669 481.633 2.73331ZM512.833 9.1333L516.967 9.93332L506.567 21.5333C484.567 46.1999 480.567 67.4 495.367 82.0666C501.233 88.0666 507.367 90.2 516.3 89.4C527.233 88.4666 535.1 83.7999 549.367 69.2666L562.3 56.3333L561.5 63.9333C559.9 83 553.767 96.2 540.7 108.733L531.233 117.933L531.633 176.467L531.9 235H526.433H521.1V186.6C521.1 143.267 520.833 137.8 518.7 133.667C512.3 120.733 494.967 119.533 487.767 131.4C485.233 135.4 485.1 138.467 485.1 185.267V235H479.1H473.1V175.533V116.2L465.5 109.267C450.033 95.1333 443.1 78.9999 443.9 59.5333C444.3 51.4 445.233 47.2666 448.167 41.4C455.233 26.8666 467.633 16.0666 483.1 10.7333C489.767 8.46664 505.1 7.5333 512.833 9.1333ZM680.433 50.4666C684.567 53 688.433 56.4666 688.967 58.0666C689.633 59.6667 689.233 64.0666 688.033 68.7333C686.433 75.1333 686.3 77.8 687.633 83.6667C690.3 95.6667 696.7 106.733 706.967 117C722.167 132.2 737.1 140.733 755.5 144.467C763.367 146.067 764.3 146.733 772.033 155.4C776.567 160.467 779.633 165 778.833 165.4C778.167 165.933 767.767 173.267 755.633 181.8C753.025 183.637 750.654 185.314 748.493 186.843C732.607 198.081 728.05 201.305 723.81 200.93C722.105 200.78 720.451 200.047 718.131 199.019C717.377 198.685 716.553 198.32 715.633 197.933C707.767 194.733 619.633 161.4 604.833 156.067C602.3 155.133 601.1 153.8 600.967 151.933C600.967 150.333 599.9 144.867 598.567 139.667L596.033 130.333L608.3 116.2C644.567 74.0667 669.9 45.6667 671.367 45.6667C672.3 45.6667 676.433 47.8 680.433 50.4666ZM435.367 61.2666C435.367 71.9333 435.9 76.0667 438.7 83.9333C442.7 95 452.033 108.867 459.767 115L465.1 119.267V160.467V201.667V209.8V213.667C464.916 214.203 464.185 214.599 463.443 214.898C461.736 215.586 458.01 215.76 449.767 215.933C439.516 216.25 436.05 216.149 433.593 214.898C432.949 214.571 432.375 214.165 431.767 213.667L429.098 211L427.95 209.8L420.167 201.667L405.633 186.6C388.967 169.533 381.633 160.333 375.9 149.133C368.567 134.733 369.1 124.067 377.633 118.867C383.767 115.133 397.5 115.4 408.033 119.533C424.567 126.067 443.9 131.4 445.233 130.067C446.167 129.133 443.9 126.2 438.433 121C434.033 116.733 428.967 110.733 427.233 107.667C422.967 100.467 413.633 91.9333 405.233 87.8C393.767 81.9333 382.433 79.9333 364.433 80.7333C350.433 81.2666 346.567 81.9333 333.367 86.3333C323.5 89.6666 314.3 93.9333 306.967 98.4666L295.767 105.533V79C295.767 53.1333 295.9 52.4666 298.7 50.4666C301.367 48.6 310.167 48.3333 368.567 48.3333H435.5L435.367 61.2666ZM557.1 49.4C557.1 51.9333 530.567 76.0666 524.833 78.7333C508.833 86.2 495.1 77.5333 495.1 60.2C495.1 59.9176 495.1 59.642 495.099 59.3729C495.093 55.6614 495.089 53.197 496.252 51.561C498.548 48.3283 505.397 48.3295 525.779 48.3331C526.47 48.3332 527.177 48.3333 527.9 48.3333C544.033 48.3333 557.1 48.7333 557.1 49.4ZM655.767 49C655.767 49.4 643.367 63.9333 628.167 81.2666C612.833 98.5999 597.5 116.333 593.9 120.6L587.367 128.467L590.3 141.533L593.233 154.6L589.767 161.8C587.9 165.8 582.3 176.333 577.5 185.267L568.567 201.667H554.167H539.767V160.6V119.533L543.767 117.133C548.7 114.333 557.5 103.4 561.767 95C567.367 83.9333 569.1 74.5999 570.433 48.6C570.433 47.9333 655.767 48.3333 655.767 49ZM705.9 50.2C708.3 51.9333 708.433 54.2 708.833 80.6C709.065 98.8145 709.162 106.486 707.704 106.794C706.642 107.018 704.757 103.345 701.5 97C695.633 85.8 694.433 78.7333 696.567 70.6C699.233 60.7333 698.833 57.1333 694.967 52.4666L691.5 48.3333H697.367C700.567 48.3333 704.433 49.1333 705.9 50.2ZM393.767 91.6667C404.033 95.1333 413.1 101.533 417.233 108.2C419.367 111.533 421.1 114.733 421.1 115.267C421.1 115.933 418.833 115.4 416.167 114.2C394.3 104.867 374.433 106.467 366.167 118.067C363.633 121.533 363.1 124.067 363.1 131.667C363.1 147.533 372.7 164.067 395.633 188.2C402.3 195.133 407.367 201.267 407.1 201.667C405.367 204.467 382.967 222.333 373.1 228.867L361.767 236.467L357.767 231.933C357.456 231.584 357.019 231.094 356.475 230.484C353.281 226.904 346.414 219.206 340.033 211.8C320.3 189.533 310.967 183 299.233 183C290.567 183 285.1 187.267 281.1 197.533C278.7 203.4 275.767 207.667 271.367 211.8L264.967 217.667L259.367 215.4C242.033 208.6 227.233 191.133 224.567 174.2C223.767 169.933 224.167 168.2 226.3 165.533C228.7 162.6 229.9 162.333 241.367 162.2C249.9 162.067 255.233 161.267 258.033 159.933C262.567 157.533 267.9 149.267 270.567 140.467C271.9 135.933 274.3 133 281.1 127.133C304.3 107.133 325.767 95.2666 347.767 90.3333C359.367 87.8 384.7 88.4667 393.767 91.6667ZM507.9 132.733C512.833 136.467 513.1 139.133 513.1 187.533V235H503.1H493.1V186.333V137.533L496.433 134.333C499.9 130.733 504.567 130.067 507.9 132.733ZM601.9 162.867C602.567 163.533 619.633 170.2 639.767 177.667L650.861 181.792C703.776 201.466 707.897 202.998 711.9 205L715.9 207.133L712.7 209.8C709.1 212.6 705.767 213.133 704.433 211C704.033 210.2 702.833 209.667 702.033 209.667C701.1 209.8 701.767 210.867 703.367 212.2L706.3 214.6L701.767 219L697.233 223.4L691.767 221.133C684.567 218.2 684.433 218.333 688.3 223.4C690.3 225.933 691.767 228.333 691.767 228.733C691.767 229.267 689.9 230.6 687.633 231.667C684.033 233.533 683.233 233.667 681.367 231.933C680.033 230.867 677.633 229.267 675.9 228.333C675.695 228.231 675.503 228.134 675.323 228.042C674.209 227.479 673.569 227.155 673.349 227.337C673.052 227.584 673.526 228.761 674.642 231.529C674.823 231.977 675.02 232.466 675.233 233C675.9 234.6 674.833 235 669.5 235C664.433 235 662.433 234.333 660.433 231.933L657.767 229L657.367 231.933L656.967 235H606.967C579.5 235 557.1 234.733 557.1 234.333C557.1 234.067 560.967 227.933 565.633 220.733C575.367 205.8 585.367 188.6 593.5 172.733C596.567 166.6 599.367 161.667 599.9 161.667C600.3 161.667 601.1 162.2 601.9 162.867ZM307.1 193.533C310.033 194.867 313.5 197.133 314.7 198.6C315.467 199.41 315.993 199.896 315.9 200.183C315.703 200.793 312.705 200.5 303.27 200.5C299.578 200.436 296.172 200.525 293.62 200.591C290.826 200.663 289.055 200.709 289.055 200.5C289.055 198.633 293.633 193.4 296.3 192.333C300.3 190.733 301.1 190.733 307.1 193.533ZM428.433 220.333C435.633 227.533 441.233 233.933 440.833 234.333C440.433 234.733 426.567 234.867 409.9 234.733L379.5 234.333L388.033 228.067C392.7 224.6 400.033 218.467 404.433 214.467C408.833 210.467 413.1 207.133 413.767 207C414.567 207 421.1 213 428.433 220.333ZM327.433 214.898C325.194 215 321.692 215 316.433 215H300.7L286.567 227.933C278.833 235 271.5 241.667 270.433 242.6C268.833 244.067 309.633 244.333 503.767 244.333L739.1 244.2L735.1 240.867C734.648 240.471 734.022 239.925 733.269 239.269L733.216 239.224C730.414 236.782 725.897 232.846 722.033 229.4L712.967 221.267L717.233 216.867C719.633 214.333 722.033 212.333 722.433 212.333C723.233 212.333 728.433 216.733 759.367 243.533L770.433 253L502.033 253.667C354.567 254.067 233.633 254.2 233.367 254.2C232.967 253.933 248.033 241.533 276.433 218.6L287.1 209.933L307.233 209.8C325.767 209.667 327.5 209.933 329.767 212.333C331.358 214.101 331.835 214.697 327.433 214.898ZM708.567 229C707.1 230.067 705.367 231 704.567 231C703.9 231 704.433 230.067 705.9 229C707.233 227.933 709.1 227.133 709.767 227.133C710.567 227.133 709.9 227.933 708.567 229ZM781.367 263.933C783.5 265.8 783.767 268.333 783.767 283.267C783.767 298.6 783.5 300.6 781.1 303C778.433 305.667 776.7 305.667 503.233 305.667C234.433 305.667 228.033 305.667 224.967 303.133C222.033 300.733 221.767 299.533 221.367 284.333C220.967 271.267 221.233 267.533 222.967 265L225.1 261.667H502.033C757.767 261.667 779.1 261.8 781.367 263.933ZM752.167 346.733L752.433 379H718.833H685.367L683.767 374.333C680.433 364.333 667.5 357.533 656.833 360.467C650.433 362.2 641.5 370.333 640.833 375.267L640.433 378.333L582.3 378.733L524.167 379L523.367 375.267C522.433 370.333 517.9 364.733 512.7 362.067C507.5 359.4 497.233 359.533 491.9 362.2C487.5 364.467 481.9 371.267 480.433 375.933L479.633 379H422.567H365.633L364.033 374.6C357.233 355.933 330.3 355 322.167 373.267L319.633 379H285.767H251.767V346.333V313.667L501.767 313.933L751.767 314.333L752.167 346.733ZM321.1 389.667C321.1 393.267 328.833 401.667 334.033 403.8C344.967 408.467 356.967 403.933 362.3 393.267L365.367 387H422.433H479.367L481.767 392.467C490.167 410.867 518.433 409.533 523.233 390.467L524.033 387H581.9H639.633L642.3 393C646.3 402.2 656.433 407.133 667.1 405.133C672.967 403.933 680.567 397.4 683.1 391.4L684.967 387L718.433 387.267L751.9 387.667L752.167 419.933L752.433 452.333L502.033 452.6L251.767 453V419.933V387H286.433C320.033 387 321.1 387.133 321.1 389.667ZM779.9 463.8C781.1 465.4 781.5 470.333 781.367 482.067C781.1 496.733 780.7 498.6 778.3 500.6C775.633 502.867 760.433 503 501.767 503C243.1 503 227.9 502.867 225.233 500.6C222.833 498.6 222.433 496.6 222.167 482.2C221.9 470.067 222.3 465.533 223.633 463.8C225.233 461.8 247.233 461.667 501.767 461.667C752.7 461.667 778.3 461.8 779.9 463.8ZM565.2 209.8L562.257 214.898L539.767 214.898V209.8L565.2 209.8Z"
              fill="black"/>
        <path fill-rule="evenodd" clip-rule="evenodd"
              d="M307.1 193.533C310.033 194.867 313.5 197.133 314.7 198.6C317.1 201.133 317.136 200.5 303.27 200.5C295.536 200.367 289.055 200.9 289.055 200.5C289.055 198.633 293.633 193.4 296.3 192.333C300.3 190.733 301.1 190.733 307.1 193.533Z"
              fill="#41C4FF"/>
        <path fill-rule="evenodd" clip-rule="evenodd"
              d="M463.443 214.898C464.185 214.599 464.916 214.203 465.1 213.667V209.8L427.95 209.8L431.767 213.667C432.375 214.165 432.949 214.571 433.593 214.898L463.443 214.898Z"
              fill="#41C4FF"/>
        <path fill-rule="evenodd" clip-rule="evenodd"
              d="M562.257 214.898L565.2 209.8L539.767 209.8V214.898L562.257 214.898Z" fill="#41C4FF"/>
        <path fill-rule="evenodd" clip-rule="evenodd"
              d="M688.967 58.0666C688.433 56.4666 684.567 53 680.433 50.4666C676.433 47.8 672.3 45.6667 671.367 45.6667C669.9 45.6667 644.567 74.0667 608.3 116.2L596.033 130.333L598.567 139.667C599.9 144.867 600.967 150.333 600.967 151.933C601.1 153.8 602.3 155.133 604.833 156.067C619.633 161.4 707.767 194.733 715.633 197.933C716.553 198.32 717.377 198.685 718.131 199.019C720.451 200.047 722.105 200.78 723.81 200.93C728.05 201.305 732.607 198.081 748.493 186.843C750.654 185.314 753.025 183.637 755.633 181.8C767.767 173.267 778.167 165.933 778.833 165.4C779.633 165 776.567 160.467 772.033 155.4C764.3 146.733 763.367 146.067 755.5 144.467C737.1 140.733 722.167 132.2 706.967 117C696.7 106.733 690.3 95.6667 687.633 83.6667C686.3 77.8 686.433 75.1333 688.033 68.7333C689.233 64.0666 689.633 59.6667 688.967 58.0666Z"
              fill="#F7FBFD"/>
    </g>
    <defs>
        <clipPath id="clip0_2028_2">
            <rect width="986" height="714" fill="white"/>
        </clipPath>
    </defs>
</svg>
